<?xml version="1.0" encoding="UTF-8" standalone="no"?>
<!-- Created with Inkscape (http://www.inkscape.org/) -->

<svg
   xmlns:dc="http://purl.org/dc/elements/1.1/"
   xmlns:cc="http://creativecommons.org/ns#"
   xmlns:rdf="http://www.w3.org/1999/02/22-rdf-syntax-ns#"
   xmlns:svg="http://www.w3.org/2000/svg"
   xmlns="http://www.w3.org/2000/svg"
   xmlns:sodipodi="http://sodipodi.sourceforge.net/DTD/sodipodi-0.dtd"
   xmlns:inkscape="http://www.inkscape.org/namespaces/inkscape"
   width="800"
   height="800"
   viewBox="0 0 211.66666 211.66667"
   version="1.1"
   id="svg8"
   inkscape:version="0.92.4 (33fec40, 2019-01-16)"
   sodipodi:docname="mythesis.svg">
  <defs
     id="defs2" />
  <sodipodi:namedview
     id="base"
     pagecolor="#ffffff"
     bordercolor="#666666"
     borderopacity="1.0"
     inkscape:pageopacity="0.0"
     inkscape:pageshadow="2"
     inkscape:zoom="0.98994949"
     inkscape:cx="269.86697"
     inkscape:cy="361.33153"
     inkscape:document-units="mm"
     inkscape:current-layer="layer1"
     showgrid="false"
     units="px"
     inkscape:window-width="1920"
     inkscape:window-height="1016"
     inkscape:window-x="0"
     inkscape:window-y="27"
     inkscape:window-maximized="1" />
  <metadata
     id="metadata5">
    <rdf:RDF>
      <cc:Work
         rdf:about="">
        <dc:format>image/svg+xml</dc:format>
        <dc:type
           rdf:resource="http://purl.org/dc/dcmitype/StillImage" />
        <dc:title></dc:title>
      </cc:Work>
    </rdf:RDF>
  </metadata>
  <g
     inkscape:label="Layer 1"
     inkscape:groupmode="layer"
     id="layer1"
     transform="translate(0,-85.333317)">
    <path
       style="opacity:1;fill:#f10000;fill-opacity:1;stroke:#00000d;stroke-width:0.53299999;stroke-miterlimit:4;stroke-dasharray:none;stroke-dashoffset:0;stroke-opacity:1"
       id="path4747"
       sodipodi:type="arc"
       sodipodi:cx="21.515196"
       sodipodi:cy="258.64682"
       sodipodi:rx="3.6081386"
       sodipodi:ry="3.6081386"
       sodipodi:start="3.0386182"
       sodipodi:end="3.0381644"
       sodipodi:open="true"
       d="m 17.92617,259.01771 a 3.6081386,3.6081386 0 0 1 3.217729,-3.95987 3.6081386,3.6081386 0 0 1 3.960238,3.21728 3.6081386,3.6081386 0 0 1 -3.21683,3.9606 3.6081386,3.6081386 0 0 1 -3.960968,-3.21638" />
    <path
       style="opacity:1;fill:#f10000;fill-opacity:1;stroke:#00000d;stroke-width:0.53299999;stroke-miterlimit:4;stroke-dasharray:none;stroke-dashoffset:0;stroke-opacity:1"
       id="path4747-3"
       sodipodi:type="arc"
       sodipodi:cx="34.215374"
       sodipodi:cy="258.64844"
       sodipodi:rx="3.6081386"
       sodipodi:ry="3.6081386"
       sodipodi:start="3.0386182"
       sodipodi:end="3.0381644"
       sodipodi:open="true"
       d="m 30.626348,259.01933 a 3.6081386,3.6081386 0 0 1 3.217729,-3.95988 3.6081386,3.6081386 0 0 1 3.960238,3.21728 3.6081386,3.6081386 0 0 1 -3.21683,3.96061 3.6081386,3.6081386 0 0 1 -3.960968,-3.21638" />
    <rect
       style="opacity:1;fill:#808080;fill-opacity:1;stroke:#00000d;stroke-width:0.53299999;stroke-miterlimit:4;stroke-dasharray:none;stroke-dashoffset:0;stroke-opacity:1"
       id="rect4806"
       width="98.622452"
       height="18.976137"
       x="105.03692"
       y="246.75331" />
    <path
       style="opacity:1;fill:#808080;fill-opacity:1;stroke:#00000d;stroke-width:0.58073217;stroke-miterlimit:4;stroke-dasharray:none;stroke-dashoffset:0;stroke-opacity:1"
       id="path4808"
       sodipodi:type="arc"
       sodipodi:cx="105.97237"
       sodipodi:cy="256.23599"
       sodipodi:rx="9.4641466"
       sodipodi:ry="9.4641466"
       sodipodi:start="3.0386182"
       sodipodi:end="3.0381644"
       sodipodi:open="true"
       d="m 96.558353,257.20884 a 9.4641466,9.4641466 0 0 1 8.440097,-10.38675 9.4641466,9.4641466 0 0 1 10.38771,8.43892 9.4641466,9.4641466 0 0 1 -8.43775,10.38866 9.4641466,9.4641466 0 0 1 -10.389614,-8.43656" />
    <rect
       style="opacity:1;fill:#008000;fill-opacity:1;stroke:#00000d;stroke-width:0.53689176;stroke-miterlimit:4;stroke-dasharray:none;stroke-dashoffset:0;stroke-opacity:1"
       id="rect4810"
       width="6.4105768"
       height="35.275684"
       x="129.36041"
       y="107.50785" />
    <rect
       style="opacity:1;fill:#008000;fill-opacity:1;stroke:#00000d;stroke-width:0.79559994;stroke-miterlimit:4;stroke-dasharray:none;stroke-dashoffset:0;stroke-opacity:1"
       id="rect4810-5"
       width="6.1518688"
       height="80.720062"
       x="129.48976"
       y="170.98007" />
    <rect
       style="opacity:1;fill:#ff6600;fill-opacity:1;stroke:#00000d;stroke-width:0.53299999;stroke-miterlimit:4;stroke-dasharray:none;stroke-dashoffset:0;stroke-opacity:1"
       id="rect4827"
       width="2.1381562"
       height="10.690781"
       x="135.24915"
       y="230.1826" />
    <rect
       style="opacity:1;fill:#ff6600;fill-opacity:1;stroke:#00000d;stroke-width:0.53299999;stroke-miterlimit:4;stroke-dasharray:none;stroke-dashoffset:0;stroke-opacity:1"
       id="rect4827-6"
       width="2.1381562"
       height="10.690781"
       x="127.4822"
       y="222.43179" />
    <rect
       style="opacity:1;fill:#ff6600;fill-opacity:1;stroke:#00000d;stroke-width:0.53299999;stroke-miterlimit:4;stroke-dasharray:none;stroke-dashoffset:0;stroke-opacity:1"
       id="rect4827-3"
       width="2.1381562"
       height="10.690781"
       x="135.24915"
       y="214.20023" />
    <rect
       style="opacity:1;fill:#ff6600;fill-opacity:1;stroke:#00000d;stroke-width:0.53299999;stroke-miterlimit:4;stroke-dasharray:none;stroke-dashoffset:0;stroke-opacity:1"
       id="rect4827-6-6"
       width="2.1381562"
       height="10.690781"
       x="127.48221"
       y="206.44942" />
    <rect
       style="opacity:1;fill:#ff6600;fill-opacity:1;stroke:#00000d;stroke-width:0.53299999;stroke-miterlimit:4;stroke-dasharray:none;stroke-dashoffset:0;stroke-opacity:1"
       id="rect4827-3-0"
       width="2.1381562"
       height="10.690781"
       x="135.24915"
       y="198.21785" />
    <rect
       style="opacity:1;fill:#ff6600;fill-opacity:1;stroke:#00000d;stroke-width:0.53299999;stroke-miterlimit:4;stroke-dasharray:none;stroke-dashoffset:0;stroke-opacity:1"
       id="rect4827-6-6-6"
       width="2.1381562"
       height="10.690781"
       x="127.48221"
       y="190.46704" />
    <rect
       style="opacity:1;fill:#ff6600;fill-opacity:1;stroke:#00000d;stroke-width:0.53299999;stroke-miterlimit:4;stroke-dasharray:none;stroke-dashoffset:0;stroke-opacity:1"
       id="rect4827-3-0-2"
       width="2.1381562"
       height="10.690781"
       x="135.24915"
       y="182.23547" />
    <rect
       style="opacity:1;fill:#ff6600;fill-opacity:1;stroke:#00000d;stroke-width:0.53299999;stroke-miterlimit:4;stroke-dasharray:none;stroke-dashoffset:0;stroke-opacity:1"
       id="rect4827-6-6-6-6"
       width="2.1381562"
       height="10.690781"
       x="127.48221"
       y="174.48466" />
    <rect
       style="opacity:1;fill:#ff6600;fill-opacity:1;stroke:#00000d;stroke-width:0.53299999;stroke-miterlimit:4;stroke-dasharray:none;stroke-dashoffset:0;stroke-opacity:1"
       id="rect4827-3-0-2-1"
       width="2.1381562"
       height="10.690781"
       x="135.77293"
       y="132.09468" />
    <rect
       style="opacity:1;fill:#ff6600;fill-opacity:1;stroke:#00000d;stroke-width:0.53299999;stroke-miterlimit:4;stroke-dasharray:none;stroke-dashoffset:0;stroke-opacity:1"
       id="rect4827-6-6-6-6-8"
       width="2.1381562"
       height="10.690781"
       x="128.006"
       y="124.34387" />
    <rect
       style="opacity:1;fill:#ff6600;fill-opacity:1;stroke:#00000d;stroke-width:0.53299999;stroke-miterlimit:4;stroke-dasharray:none;stroke-dashoffset:0;stroke-opacity:1"
       id="rect4827-3-0-2-1-7"
       width="2.1381562"
       height="10.690781"
       x="135.77293"
       y="116.11224" />
    <rect
       style="opacity:1;fill:#ff6600;fill-opacity:1;stroke:#00000d;stroke-width:0.53299999;stroke-miterlimit:4;stroke-dasharray:none;stroke-dashoffset:0;stroke-opacity:1"
       id="rect4827-6-6-6-6-8-9"
       width="2.1381562"
       height="10.690781"
       x="128.006"
       y="108.36143" />
    <rect
       style="opacity:1;fill:#ff6600;fill-opacity:1;stroke:#00000d;stroke-width:0.34450415;stroke-miterlimit:4;stroke-dasharray:none;stroke-dashoffset:0;stroke-opacity:1"
       id="rect4827-3-0-2-1-7-2"
       width="2.2180164"
       height="4.3054504"
       x="135.733"
       y="108.0005" />
    <rect
       style="opacity:1;fill:#ff6600;fill-opacity:1;stroke:#00000d;stroke-width:0.31154236;stroke-miterlimit:4;stroke-dasharray:none;stroke-dashoffset:0;stroke-opacity:1"
       id="rect5003"
       width="109.05308"
       height="2.3278644"
       x="95.545303"
       y="275.16144" />
    <rect
       style="opacity:1;fill:#cccccc;fill-opacity:1;stroke:#00000d;stroke-width:0.53299999;stroke-miterlimit:4;stroke-dasharray:none;stroke-dashoffset:0;stroke-opacity:1"
       id="rect5005"
       width="199.38306"
       height="4.8108511"
       x="6.9490075"
       y="277.23276" />
    <path
       style="fill:none;stroke:#000000;stroke-width:0.16081433px;stroke-linecap:butt;stroke-linejoin:miter;stroke-opacity:1"
       d="m 22.290204,255.18067 v -4.70108 h 2.709166 l 0.492576,-0.97941 0.928315,1.93703 0.928314,-1.95878 0.966207,1.95878 0.909369,-2.00231 0.890426,1.98055 0.492575,-0.93586 h 2.728111 v 4.59226"
       id="path5036"
       inkscape:connector-curvature="0" />
    <path
       style="fill:none;stroke:#000000;stroke-width:0.16081433px;stroke-linecap:butt;stroke-linejoin:miter;stroke-opacity:1"
       d="m 35.981098,255.18067 v -4.70108 h 2.709166 l 0.492575,-0.97941 0.928316,1.93703 0.928314,-1.95878 0.966207,1.95878 0.909369,-2.00231 0.890426,1.98055 0.492575,-0.93586 h 2.72811 v 4.59226"
       id="path5036-0"
       inkscape:connector-curvature="0" />
    <path
       style="opacity:1;fill:#f10000;fill-opacity:1;stroke:#00000d;stroke-width:0.53299999;stroke-miterlimit:4;stroke-dasharray:none;stroke-dashoffset:0;stroke-opacity:1"
       id="path4747-2"
       sodipodi:type="arc"
       sodipodi:cx="46.915554"
       sodipodi:cy="258.65005"
       sodipodi:rx="3.6081386"
       sodipodi:ry="3.6081386"
       sodipodi:start="3.0386182"
       sodipodi:end="3.0381644"
       sodipodi:open="true"
       d="m 43.326528,259.02094 a 3.6081386,3.6081386 0 0 1 3.217729,-3.95987 3.6081386,3.6081386 0 0 1 3.960238,3.21728 3.6081386,3.6081386 0 0 1 -3.21683,3.9606 3.6081386,3.6081386 0 0 1 -3.960968,-3.21638" />
    <path
       style="opacity:1;fill:#f10000;fill-opacity:1;stroke:#00000d;stroke-width:0.53299999;stroke-miterlimit:4;stroke-dasharray:none;stroke-dashoffset:0;stroke-opacity:1"
       id="path4747-3-3"
       sodipodi:type="arc"
       sodipodi:cx="59.61573"
       sodipodi:cy="258.65167"
       sodipodi:rx="3.6081386"
       sodipodi:ry="3.6081386"
       sodipodi:start="3.0386182"
       sodipodi:end="3.0381644"
       sodipodi:open="true"
       d="m 56.026705,259.02256 a 3.6081386,3.6081386 0 0 1 3.217728,-3.95987 3.6081386,3.6081386 0 0 1 3.960239,3.21728 3.6081386,3.6081386 0 0 1 -3.21683,3.9606 3.6081386,3.6081386 0 0 1 -3.960969,-3.21638" />
    <path
       style="opacity:1;fill:#f10000;fill-opacity:1;stroke:#00000d;stroke-width:0.53299999;stroke-miterlimit:4;stroke-dasharray:none;stroke-dashoffset:0;stroke-opacity:1"
       id="path4747-2-7"
       sodipodi:type="arc"
       sodipodi:cx="72.315407"
       sodipodi:cy="258.64844"
       sodipodi:rx="3.6081386"
       sodipodi:ry="3.6081386"
       sodipodi:start="3.0386182"
       sodipodi:end="3.0381644"
       sodipodi:open="true"
       d="m 68.726381,259.01933 a 3.6081386,3.6081386 0 0 1 3.217729,-3.95988 3.6081386,3.6081386 0 0 1 3.960238,3.21728 3.6081386,3.6081386 0 0 1 -3.21683,3.96061 3.6081386,3.6081386 0 0 1 -3.960968,-3.21638" />
    <path
       style="opacity:1;fill:#f10000;fill-opacity:1;stroke:#00000d;stroke-width:0.53299999;stroke-miterlimit:4;stroke-dasharray:none;stroke-dashoffset:0;stroke-opacity:1"
       id="path4747-3-3-5"
       sodipodi:type="arc"
       sodipodi:cx="85.015579"
       sodipodi:cy="258.65005"
       sodipodi:rx="3.6081386"
       sodipodi:ry="3.6081386"
       sodipodi:start="3.0386182"
       sodipodi:end="3.0381644"
       sodipodi:open="true"
       d="m 81.426554,259.02094 a 3.6081386,3.6081386 0 0 1 3.217728,-3.95987 3.6081386,3.6081386 0 0 1 3.960239,3.21728 3.6081386,3.6081386 0 0 1 -3.21683,3.9606 3.6081386,3.6081386 0 0 1 -3.960969,-3.21638" />
    <path
       style="fill:none;stroke:#000000;stroke-width:0.16081433px;stroke-linecap:butt;stroke-linejoin:miter;stroke-opacity:1"
       d="m 48.349073,255.22792 v -4.70108 h 2.709166 l 0.492575,-0.97941 0.928316,1.93703 0.928314,-1.95878 0.966207,1.95878 0.909369,-2.00231 0.890426,1.98055 0.492575,-0.93586 h 2.728109 v 4.59226"
       id="path5036-0-9"
       inkscape:connector-curvature="0" />
    <path
       style="fill:none;stroke:#000000;stroke-width:0.16081433px;stroke-linecap:butt;stroke-linejoin:miter;stroke-opacity:1"
       d="m 61.048528,255.27482 v -4.70108 h 2.709167 l 0.492575,-0.97941 0.928316,1.93703 0.928314,-1.95878 0.966207,1.95878 0.909369,-2.00231 0.890426,1.98055 0.492575,-0.93586 h 2.728108 v 4.59226"
       id="path5036-0-9-2"
       inkscape:connector-curvature="0" />
    <path
       style="fill:none;stroke:#000000;stroke-width:0.16081433px;stroke-linecap:butt;stroke-linejoin:miter;stroke-opacity:1"
       d="m 73.510996,255.22757 v -4.70108 h 2.709167 l 0.492575,-0.97941 0.928316,1.93703 0.928314,-1.95878 0.966207,1.95878 0.909369,-2.00231 0.890426,1.98055 0.492575,-0.93586 h 2.728108 v 4.59226"
       id="path5036-0-9-2-2"
       inkscape:connector-curvature="0" />
    <path
       style="fill:none;stroke:#000000;stroke-width:0.16081433px;stroke-linecap:butt;stroke-linejoin:miter;stroke-opacity:1"
       d="m 127.31766,225.28162 h -4.70108 v -2.70917 l -0.97941,-0.49257 1.93703,-0.92832 -1.95878,-0.92831 1.95878,-0.96621 -2.00231,-0.90937 1.98055,-0.89042 -0.93586,-0.49258 v -2.72811 h 4.59226"
       id="path5036-0-9-2-2-8"
       inkscape:connector-curvature="0" />
    <path
       style="fill:none;stroke:#000000;stroke-width:0.16081433px;stroke-linecap:butt;stroke-linejoin:miter;stroke-opacity:1"
       d="m 127.32469,209.16239 h -4.70108 v -2.70917 l -0.97941,-0.49257 1.93703,-0.92832 -1.95878,-0.92831 1.95878,-0.96621 -2.00231,-0.90937 1.98055,-0.89042 -0.93586,-0.49258 v -2.72811 h 4.59226"
       id="path5036-0-9-2-2-8-9"
       inkscape:connector-curvature="0" />
    <path
       style="fill:none;stroke:#000000;stroke-width:0.16081433px;stroke-linecap:butt;stroke-linejoin:miter;stroke-opacity:1"
       d="m 127.1357,193.66537 h -4.70108 v -2.70917 l -0.97941,-0.49257 1.93703,-0.92832 -1.95878,-0.92831 1.95878,-0.96621 -2.00231,-0.90937 1.98055,-0.89042 -0.93586,-0.49258 v -2.72811 h 4.59226"
       id="path5036-0-9-2-2-8-9-7"
       inkscape:connector-curvature="0" />
    <path
       style="fill:none;stroke:#000000;stroke-width:0.16081433px;stroke-linecap:butt;stroke-linejoin:miter;stroke-opacity:1"
       d="m 128.11482,129.03893 h -4.70108 v -2.70917 l -0.97941,-0.49257 1.93703,-0.92832 -1.95878,-0.92831 1.95878,-0.96621 -2.00231,-0.90937 1.98055,-0.89042 -0.93586,-0.49258 v -2.72811 h 4.59226"
       id="path5036-0-9-2-2-8-9-7-3"
       inkscape:connector-curvature="0" />
    <path
       style="fill:none;stroke:#000000;stroke-width:0.16081433px;stroke-linecap:butt;stroke-linejoin:miter;stroke-opacity:1"
       d="m 123.00158,143.86701 v 0 -2.70917 l -0.97941,-0.49257 1.93703,-0.92832 -1.95878,-0.92831 1.95878,-0.96621 -2.00231,-0.90937 1.98055,-0.89042 -0.93586,-0.49258 v -2.72811 h 4.59226"
       id="path5036-0-9-2-2-8-9-7-3-6"
       inkscape:connector-curvature="0"
       sodipodi:nodetypes="cccccccccccc" />
    <path
       style="fill:none;stroke:#000000;stroke-width:0.16081433px;stroke-linecap:butt;stroke-linejoin:miter;stroke-opacity:1"
       d="m 127.1357,177.88486 h -4.70108 v -2.70917 l -0.97941,-0.49257 1.93703,-0.92832 -1.95878,-0.92831 1.95878,-0.96621 -2.00231,-0.90937 1.98055,-0.89042 -0.93586,-0.49258 v -2.72811 0"
       id="path5036-0-9-2-2-8-9-7-9"
       inkscape:connector-curvature="0"
       sodipodi:nodetypes="cccccccccccc" />
    <path
       style="fill:#b3b3b3;stroke:#000000;stroke-width:0.30472836px;stroke-linecap:butt;stroke-linejoin:miter;stroke-opacity:1"
       d="m 61.520074,103.97064 v 9.05485 h 64.754306 v -5.19323 h 11.20747 v 2.26373 h 6.04849 V 103.438 Z"
       id="path5254"
       inkscape:connector-curvature="0" />
    <path
       style="fill:none;stroke:#000000;stroke-width:0.26458332px;stroke-linecap:butt;stroke-linejoin:miter;stroke-opacity:1"
       d="m 128.35619,114.4883 h -5.27857 l -1.00226,1.57021 -1.23613,-2.33861 -1.10248,2.2718 -1.06908,-2.23839 -0.90203,2.20498 -0.53454,-1.30294 -2.63929,0.0334 v -1.67044"
       id="path5271"
       inkscape:connector-curvature="0" />
  </g>
</svg>
