<?xml version="1.0" encoding="UTF-8" standalone="no"?>
<!-- Created with Inkscape (http://www.inkscape.org/) -->

<svg
   xmlns:dc="http://purl.org/dc/elements/1.1/"
   xmlns:cc="http://creativecommons.org/ns#"
   xmlns:rdf="http://www.w3.org/1999/02/22-rdf-syntax-ns#"
   xmlns:svg="http://www.w3.org/2000/svg"
   xmlns="http://www.w3.org/2000/svg"
   xmlns:sodipodi="http://sodipodi.sourceforge.net/DTD/sodipodi-0.dtd"
   xmlns:inkscape="http://www.inkscape.org/namespaces/inkscape"
   sodipodi:docname="paddist.svg"
   inkscape:version="0.92.3 (d244b95, 2018-08-02)"
   id="svg8"
   version="1.1"
   viewBox="0 0 196.35103 122.33043"
   height="122.33043mm"
   width="196.35103mm">
  <defs
     id="defs2">
    <marker
       inkscape:stockid="Arrow2Mstart"
       orient="auto"
       refY="0.0"
       refX="0.0"
       id="marker15346"
       style="overflow:visible"
       inkscape:isstock="true">
      <path
         id="path13700"
         style="fill-rule:evenodd;stroke-width:0.625;stroke-linejoin:round;stroke:#000000;stroke-opacity:1;fill:#000000;fill-opacity:1"
         d="M 8.7185878,4.0337352 L -2.2072895,0.016013256 L 8.7185884,-4.0017078 C 6.9730900,-1.6296469 6.9831476,1.6157441 8.7185878,4.0337352 z "
         transform="scale(0.6) translate(0,0)" />
    </marker>
    <marker
       inkscape:isstock="true"
       style="overflow:visible;"
       id="marker15177"
       refX="0.0"
       refY="0.0"
       orient="auto"
       inkscape:stockid="Arrow2Mend">
      <path
         transform="scale(0.6) rotate(180) translate(0,0)"
         d="M 8.7185878,4.0337352 L -2.2072895,0.016013256 L 8.7185884,-4.0017078 C 6.9730900,-1.6296469 6.9831476,1.6157441 8.7185878,4.0337352 z "
         style="fill-rule:evenodd;stroke-width:0.625;stroke-linejoin:round;stroke:#000000;stroke-opacity:1;fill:#000000;fill-opacity:1"
         id="path15175" />
    </marker>
    <marker
       inkscape:isstock="true"
       style="overflow:visible;"
       id="marker14831"
       refX="0.0"
       refY="0.0"
       orient="auto"
       inkscape:stockid="Arrow2Mend">
      <path
         transform="scale(0.6) rotate(180) translate(0,0)"
         d="M 8.7185878,4.0337352 L -2.2072895,0.016013256 L 8.7185884,-4.0017078 C 6.9730900,-1.6296469 6.9831476,1.6157441 8.7185878,4.0337352 z "
         style="fill-rule:evenodd;stroke-width:0.625;stroke-linejoin:round;stroke:#000000;stroke-opacity:1;fill:#000000;fill-opacity:1"
         id="path14829" />
    </marker>
    <marker
       inkscape:stockid="Arrow2Mend"
       orient="auto"
       refY="0.0"
       refX="0.0"
       id="marker13939"
       style="overflow:visible;"
       inkscape:isstock="true">
      <path
         id="path13703"
         style="fill-rule:evenodd;stroke-width:0.625;stroke-linejoin:round;stroke:#000000;stroke-opacity:1;fill:#000000;fill-opacity:1"
         d="M 8.7185878,4.0337352 L -2.2072895,0.016013256 L 8.7185884,-4.0017078 C 6.9730900,-1.6296469 6.9831476,1.6157441 8.7185878,4.0337352 z "
         transform="scale(0.6) rotate(180) translate(0,0)" />
    </marker>
    <marker
       inkscape:stockid="Arrow2Send"
       orient="auto"
       refY="0.0"
       refX="0.0"
       id="Arrow2Send"
       style="overflow:visible;"
       inkscape:isstock="true">
      <path
         id="path4267"
         style="fill-rule:evenodd;stroke-width:0.625;stroke-linejoin:round;stroke:#000000;stroke-opacity:1;fill:#000000;fill-opacity:1"
         d="M 8.7185878,4.0337352 L -2.2072895,0.016013256 L 8.7185884,-4.0017078 C 6.9730900,-1.6296469 6.9831476,1.6157441 8.7185878,4.0337352 z "
         transform="scale(0.3) rotate(180) translate(-2.3,0)" />
    </marker>
    <marker
       inkscape:stockid="Arrow2Lend"
       orient="auto"
       refY="0.0"
       refX="0.0"
       id="marker4500"
       style="overflow:visible;"
       inkscape:isstock="true">
      <path
         id="path4255"
         style="fill-rule:evenodd;stroke-width:0.625;stroke-linejoin:round;stroke:#000000;stroke-opacity:1;fill:#000000;fill-opacity:1"
         d="M 8.7185878,4.0337352 L -2.2072895,0.016013256 L 8.7185884,-4.0017078 C 6.9730900,-1.6296469 6.9831476,1.6157441 8.7185878,4.0337352 z "
         transform="scale(1.1) rotate(180) translate(1,0)" />
    </marker>
    <marker
       inkscape:stockid="Arrow2Lstart"
       orient="auto"
       refY="0.0"
       refX="0.0"
       id="marker4497"
       style="overflow:visible"
       inkscape:isstock="true">
      <path
         id="path4252"
         style="fill-rule:evenodd;stroke-width:0.625;stroke-linejoin:round;stroke:#000000;stroke-opacity:1;fill:#000000;fill-opacity:1"
         d="M 8.7185878,4.0337352 L -2.2072895,0.016013256 L 8.7185884,-4.0017078 C 6.9730900,-1.6296469 6.9831476,1.6157441 8.7185878,4.0337352 z "
         transform="scale(1.1) translate(1,0)" />
    </marker>
    <marker
       inkscape:stockid="Arrow2Sstart"
       orient="auto"
       refY="0"
       refX="0"
       id="Arrow2Sstart"
       style="overflow:visible"
       inkscape:isstock="true">
      <path
         id="path1522"
         style="fill:#000000;fill-opacity:1;fill-rule:evenodd;stroke:#000000;stroke-width:0.625;stroke-linejoin:round;stroke-opacity:1"
         d="M 8.7185878,4.0337352 -2.2072895,0.01601326 8.7185884,-4.0017078 c -1.7454984,2.3720609 -1.7354408,5.6174519 -6e-7,8.035443 z"
         transform="matrix(0.3,0,0,0.3,-0.69,0)"
         inkscape:connector-curvature="0" />
    </marker>
    <marker
       inkscape:stockid="Arrow2Mstart"
       orient="auto"
       refY="0"
       refX="0"
       id="Arrow2Mstart"
       style="overflow:visible"
       inkscape:isstock="true">
      <path
         id="path1516"
         style="fill:#000000;fill-opacity:1;fill-rule:evenodd;stroke:#000000;stroke-width:0.625;stroke-linejoin:round;stroke-opacity:1"
         d="M 8.7185878,4.0337352 -2.2072895,0.01601326 8.7185884,-4.0017078 c -1.7454984,2.3720609 -1.7354408,5.6174519 -6e-7,8.035443 z"
         transform="scale(0.6)"
         inkscape:connector-curvature="0" />
    </marker>
    <marker
       inkscape:stockid="Arrow2Lstart"
       orient="auto"
       refY="0"
       refX="0"
       id="marker1755"
       style="overflow:visible"
       inkscape:isstock="true">
      <path
         id="path1510"
         style="fill:#000000;fill-opacity:1;fill-rule:evenodd;stroke:#000000;stroke-width:0.625;stroke-linejoin:round;stroke-opacity:1"
         d="M 8.7185878,4.0337352 -2.2072895,0.01601326 8.7185884,-4.0017078 c -1.7454984,2.3720609 -1.7354408,5.6174519 -6e-7,8.035443 z"
         transform="matrix(1.1,0,0,1.1,1.1,0)"
         inkscape:connector-curvature="0" />
    </marker>
    <marker
       inkscape:stockid="SquareL"
       orient="auto"
       refY="0"
       refX="0"
       id="SquareL"
       style="overflow:visible"
       inkscape:isstock="true">
      <path
         id="path1102"
         d="M -5,-5 V 5 H 5 V -5 Z"
         style="fill:#000000;fill-opacity:1;fill-rule:evenodd;stroke:#000000;stroke-width:1.00000003pt;stroke-opacity:1"
         transform="scale(0.8)"
         inkscape:connector-curvature="0" />
    </marker>
    <marker
       inkscape:stockid="Arrow2Lstart"
       orient="auto"
       refY="0"
       refX="0"
       id="Arrow2Lstart"
       style="overflow:visible"
       inkscape:isstock="true">
      <path
         id="path1050"
         style="fill:#000000;fill-opacity:1;fill-rule:evenodd;stroke:#000000;stroke-width:0.625;stroke-linejoin:round;stroke-opacity:1"
         d="M 8.7185878,4.0337352 -2.2072895,0.01601326 8.7185884,-4.0017078 c -1.7454984,2.3720609 -1.7354408,5.6174519 -6e-7,8.035443 z"
         transform="matrix(1.1,0,0,1.1,1.1,0)"
         inkscape:connector-curvature="0" />
    </marker>
    <marker
       inkscape:stockid="Arrow2Lend"
       orient="auto"
       refY="0"
       refX="0"
       id="Arrow2Lend"
       style="overflow:visible"
       inkscape:isstock="true">
      <path
         id="path1053"
         style="fill:#000000;fill-opacity:1;fill-rule:evenodd;stroke:#000000;stroke-width:0.625;stroke-linejoin:round;stroke-opacity:1"
         d="M 8.7185878,4.0337352 -2.2072895,0.01601326 8.7185884,-4.0017078 c -1.7454984,2.3720609 -1.7354408,5.6174519 -6e-7,8.035443 z"
         transform="matrix(-1.1,0,0,-1.1,-1.1,0)"
         inkscape:connector-curvature="0" />
    </marker>
    <marker
       inkscape:stockid="Arrow2Lstart"
       orient="auto"
       refY="0"
       refX="0"
       id="Arrow2Lstart-2"
       style="overflow:visible"
       inkscape:isstock="true">
      <path
         inkscape:connector-curvature="0"
         id="path1050-6"
         style="fill:#000000;fill-opacity:1;fill-rule:evenodd;stroke:#000000;stroke-width:0.625;stroke-linejoin:round;stroke-opacity:1"
         d="M 8.7185878,4.0337352 -2.2072895,0.01601326 8.7185884,-4.0017078 c -1.7454984,2.3720609 -1.7354408,5.6174519 -6e-7,8.035443 z"
         transform="matrix(1.1,0,0,1.1,1.1,0)" />
    </marker>
    <marker
       inkscape:stockid="Arrow2Lend"
       orient="auto"
       refY="0"
       refX="0"
       id="Arrow2Lend-1"
       style="overflow:visible"
       inkscape:isstock="true">
      <path
         inkscape:connector-curvature="0"
         id="path1053-8"
         style="fill:#000000;fill-opacity:1;fill-rule:evenodd;stroke:#000000;stroke-width:0.625;stroke-linejoin:round;stroke-opacity:1"
         d="M 8.7185878,4.0337352 -2.2072895,0.01601326 8.7185884,-4.0017078 c -1.7454984,2.3720609 -1.7354408,5.6174519 -6e-7,8.035443 z"
         transform="matrix(-1.1,0,0,-1.1,-1.1,0)" />
    </marker>
    <marker
       inkscape:stockid="Arrow2Lstart"
       orient="auto"
       refY="0"
       refX="0"
       id="Arrow2Lstart-9"
       style="overflow:visible"
       inkscape:isstock="true">
      <path
         inkscape:connector-curvature="0"
         id="path1050-7"
         style="fill:#000000;fill-opacity:1;fill-rule:evenodd;stroke:#000000;stroke-width:0.625;stroke-linejoin:round;stroke-opacity:1"
         d="M 8.7185878,4.0337352 -2.2072895,0.01601326 8.7185884,-4.0017078 c -1.7454984,2.3720609 -1.7354408,5.6174519 -6e-7,8.035443 z"
         transform="matrix(1.1,0,0,1.1,1.1,0)" />
    </marker>
    <marker
       inkscape:stockid="Arrow2Lend"
       orient="auto"
       refY="0"
       refX="0"
       id="Arrow2Lend-3"
       style="overflow:visible"
       inkscape:isstock="true">
      <path
         inkscape:connector-curvature="0"
         id="path1053-6"
         style="fill:#000000;fill-opacity:1;fill-rule:evenodd;stroke:#000000;stroke-width:0.625;stroke-linejoin:round;stroke-opacity:1"
         d="M 8.7185878,4.0337352 -2.2072895,0.01601326 8.7185884,-4.0017078 c -1.7454984,2.3720609 -1.7354408,5.6174519 -6e-7,8.035443 z"
         transform="matrix(-1.1,0,0,-1.1,-1.1,0)" />
    </marker>
    <marker
       inkscape:stockid="Arrow2Lstart"
       orient="auto"
       refY="0"
       refX="0"
       id="Arrow2Lstart-9-1"
       style="overflow:visible"
       inkscape:isstock="true">
      <path
         inkscape:connector-curvature="0"
         id="path1050-7-9"
         style="fill:#000000;fill-opacity:1;fill-rule:evenodd;stroke:#000000;stroke-width:0.625;stroke-linejoin:round;stroke-opacity:1"
         d="M 8.7185878,4.0337352 -2.2072895,0.01601326 8.7185884,-4.0017078 c -1.7454984,2.3720609 -1.7354408,5.6174519 -6e-7,8.035443 z"
         transform="matrix(1.1,0,0,1.1,1.1,0)" />
    </marker>
    <marker
       inkscape:stockid="Arrow2Lend"
       orient="auto"
       refY="0"
       refX="0"
       id="Arrow2Lend-3-4"
       style="overflow:visible"
       inkscape:isstock="true">
      <path
         inkscape:connector-curvature="0"
         id="path1053-6-7"
         style="fill:#000000;fill-opacity:1;fill-rule:evenodd;stroke:#000000;stroke-width:0.625;stroke-linejoin:round;stroke-opacity:1"
         d="M 8.7185878,4.0337352 -2.2072895,0.01601326 8.7185884,-4.0017078 c -1.7454984,2.3720609 -1.7354408,5.6174519 -6e-7,8.035443 z"
         transform="matrix(-1.1,0,0,-1.1,-1.1,0)" />
    </marker>
    <marker
       inkscape:stockid="Arrow2Lstart"
       orient="auto"
       refY="0"
       refX="0"
       id="Arrow2Lstart-9-10"
       style="overflow:visible"
       inkscape:isstock="true">
      <path
         inkscape:connector-curvature="0"
         id="path1050-7-6"
         style="fill:#000000;fill-opacity:1;fill-rule:evenodd;stroke:#000000;stroke-width:0.625;stroke-linejoin:round;stroke-opacity:1"
         d="M 8.7185878,4.0337352 -2.2072895,0.01601326 8.7185884,-4.0017078 c -1.7454984,2.3720609 -1.7354408,5.6174519 -6e-7,8.035443 z"
         transform="matrix(1.1,0,0,1.1,1.1,0)" />
    </marker>
    <marker
       inkscape:stockid="Arrow2Lend"
       orient="auto"
       refY="0"
       refX="0"
       id="Arrow2Lend-3-3"
       style="overflow:visible"
       inkscape:isstock="true">
      <path
         inkscape:connector-curvature="0"
         id="path1053-6-2"
         style="fill:#000000;fill-opacity:1;fill-rule:evenodd;stroke:#000000;stroke-width:0.625;stroke-linejoin:round;stroke-opacity:1"
         d="M 8.7185878,4.0337352 -2.2072895,0.01601326 8.7185884,-4.0017078 c -1.7454984,2.3720609 -1.7354408,5.6174519 -6e-7,8.035443 z"
         transform="matrix(-1.1,0,0,-1.1,-1.1,0)" />
    </marker>
    <marker
       inkscape:stockid="Arrow2Lstart"
       orient="auto"
       refY="0"
       refX="0"
       id="Arrow2Lstart-1"
       style="overflow:visible"
       inkscape:isstock="true">
      <path
         inkscape:connector-curvature="0"
         id="path1050-5"
         style="fill:#000000;fill-opacity:1;fill-rule:evenodd;stroke:#000000;stroke-width:0.625;stroke-linejoin:round;stroke-opacity:1"
         d="M 8.7185878,4.0337352 -2.2072895,0.01601326 8.7185884,-4.0017078 c -1.7454984,2.3720609 -1.7354408,5.6174519 -6e-7,8.035443 z"
         transform="matrix(1.1,0,0,1.1,1.1,0)" />
    </marker>
    <marker
       inkscape:stockid="Arrow2Lend"
       orient="auto"
       refY="0"
       refX="0"
       id="Arrow2Lend-5"
       style="overflow:visible"
       inkscape:isstock="true">
      <path
         inkscape:connector-curvature="0"
         id="path1053-4"
         style="fill:#000000;fill-opacity:1;fill-rule:evenodd;stroke:#000000;stroke-width:0.625;stroke-linejoin:round;stroke-opacity:1"
         d="M 8.7185878,4.0337352 -2.2072895,0.01601326 8.7185884,-4.0017078 c -1.7454984,2.3720609 -1.7354408,5.6174519 -6e-7,8.035443 z"
         transform="matrix(-1.1,0,0,-1.1,-1.1,0)" />
    </marker>
    <marker
       inkscape:stockid="Arrow2Sstart"
       orient="auto"
       refY="0"
       refX="0"
       id="Arrow2Sstart-3"
       style="overflow:visible"
       inkscape:isstock="true">
      <path
         inkscape:connector-curvature="0"
         id="path1522-6"
         style="fill:#000000;fill-opacity:1;fill-rule:evenodd;stroke:#000000;stroke-width:0.625;stroke-linejoin:round;stroke-opacity:1"
         d="M 8.7185878,4.0337352 -2.2072895,0.01601326 8.7185884,-4.0017078 c -1.7454984,2.3720609 -1.7354408,5.6174519 -6e-7,8.035443 z"
         transform="matrix(0.3,0,0,0.3,-0.69,0)" />
    </marker>
    <marker
       inkscape:stockid="Arrow2Sstart"
       orient="auto"
       refY="0"
       refX="0"
       id="Arrow2Sstart-3-7"
       style="overflow:visible"
       inkscape:isstock="true">
      <path
         inkscape:connector-curvature="0"
         id="path1522-6-5"
         style="fill:#000000;fill-opacity:1;fill-rule:evenodd;stroke:#000000;stroke-width:0.625;stroke-linejoin:round;stroke-opacity:1"
         d="M 8.7185878,4.0337352 -2.2072895,0.01601326 8.7185884,-4.0017078 c -1.7454984,2.3720609 -1.7354408,5.6174519 -6e-7,8.035443 z"
         transform="matrix(0.3,0,0,0.3,-0.69,0)" />
    </marker>
  </defs>
  <sodipodi:namedview
     id="base"
     pagecolor="#ffffff"
     bordercolor="#666666"
     borderopacity="1.0"
     inkscape:pageopacity="0.0"
     inkscape:pageshadow="2"
     inkscape:zoom="1.5542957"
     inkscape:cx="448.31559"
     inkscape:cy="254.72369"
     inkscape:document-units="mm"
     inkscape:current-layer="g1910"
     showgrid="false"
     inkscape:window-width="1920"
     inkscape:window-height="1016"
     inkscape:window-x="0"
     inkscape:window-y="27"
     inkscape:window-maximized="1"
     showguides="true"
     inkscape:guide-bbox="true"
     fit-margin-top="0"
     fit-margin-left="0"
     fit-margin-right="0"
     fit-margin-bottom="100" />
  <metadata
     id="metadata5">
    <rdf:RDF>
      <cc:Work
         rdf:about="">
        <dc:format>image/svg+xml</dc:format>
        <dc:type
           rdf:resource="http://purl.org/dc/dcmitype/StillImage" />
        <dc:title />
      </cc:Work>
    </rdf:RDF>
  </metadata>
  <g
     inkscape:label="Layer 1"
     inkscape:groupmode="layer"
     id="layer1"
     transform="translate(-2.9842116,-90.911394)">
    <g
       transform="translate(43.425188,7.2929098)"
       id="g2139-1-3" />
    <g
       id="g1910"
       transform="translate(0.52916667,-1.5875)">
      <path
         sodipodi:nodetypes="ccccc"
         inkscape:connector-curvature="0"
         id="path815"
         d="M 50.482576,180.30441 30.357314,161.2476 h 25.227442 l 20.125263,19.05681 z"
         style="fill:none;stroke:#000000;stroke-width:0.44466043px;stroke-linecap:butt;stroke-linejoin:miter;stroke-opacity:1" />
      <path
         sodipodi:nodetypes="ccccc"
         inkscape:connector-curvature="0"
         id="path815-6-7"
         d="M 104.11249,180.30441 83.987226,161.2476 h 25.227454 l 20.12526,19.05681 z"
         style="fill:none;stroke:#000000;stroke-width:0.44466043px;stroke-linecap:butt;stroke-linejoin:miter;stroke-opacity:1" />
      <path
         sodipodi:nodetypes="ccccc"
         inkscape:connector-curvature="0"
         id="path815-6-5"
         d="M 130.92745,180.30441 110.80219,161.2476 h 25.22745 l 20.12527,19.05681 z"
         style="fill:none;stroke:#000000;stroke-width:0.44466043px;stroke-linecap:butt;stroke-linejoin:miter;stroke-opacity:1" />
      <path
         sodipodi:nodetypes="ccccc"
         inkscape:connector-curvature="0"
         id="path815-3"
         d="M 29.828147,160.18926 9.7028773,141.13245 H 34.930327 l 20.12526,19.05681 z"
         style="opacity:0.06000001;fill:none;stroke:#000000;stroke-width:0.44466043px;stroke-linecap:butt;stroke-linejoin:miter;stroke-opacity:1" />
      <path
         sodipodi:nodetypes="ccccc"
         inkscape:connector-curvature="0"
         id="path815-6-7-0"
         d="m 83.458057,160.18926 -20.12527,-19.05681 h 25.22746 l 20.125253,19.05681 z"
         style="opacity:0.103;fill:none;stroke:#000000;stroke-width:0.44466043px;stroke-linecap:butt;stroke-linejoin:miter;stroke-opacity:1" />
      <path
         sodipodi:nodetypes="ccccc"
         inkscape:connector-curvature="0"
         id="path815-6-5-7"
         d="M 110.27301,160.18926 90.147757,141.13245 H 115.3752 l 20.12527,19.05681 z"
         style="opacity:0.03599997;fill:none;stroke:#000000;stroke-width:0.44466043px;stroke-linecap:butt;stroke-linejoin:miter;stroke-opacity:1" />
      <path
         sodipodi:nodetypes="ccccc"
         inkscape:connector-curvature="0"
         id="path815-6-8"
         d="m 56.643087,160.18926 -20.12527,-19.05681 h 25.22745 l 20.12528,19.05681 z"
         style="opacity:0.103;fill:none;stroke:#000000;stroke-width:0.44466043px;stroke-linecap:butt;stroke-linejoin:miter;stroke-opacity:1" />
      <path
         inkscape:connector-curvature="0"
         id="path13175-5-4-7"
         d="M 23.509824,130.87678 H 160.37248"
         style="opacity:0.44500002;fill:#4d4d4d;fill-opacity:1;stroke:#000000;stroke-width:1.26499999;stroke-linecap:butt;stroke-linejoin:miter;stroke-miterlimit:4;stroke-dasharray:none;stroke-opacity:1" />
      <path
         inkscape:connector-curvature="0"
         id="path13175-5-4-7-4"
         d="M 28.786865,134.79201 H 165.64951"
         style="opacity:0.502;fill:#4d4d4d;fill-opacity:1;stroke:#000000;stroke-width:1.26499999;stroke-linecap:butt;stroke-linejoin:miter;stroke-miterlimit:4;stroke-dasharray:none;stroke-opacity:1" />
      <path
         sodipodi:nodetypes="ccccc"
         inkscape:connector-curvature="0"
         id="path815-6"
         d="M 77.29752,180.30441 57.172258,161.2476 h 25.227448 l 20.125274,19.05681 z"
         style="fill:none;stroke:#000000;stroke-width:0.44466043px;stroke-linecap:butt;stroke-linejoin:miter;stroke-opacity:1" />
      <rect
         y="199.38092"
         x="138.06299"
         height="3.0092194"
         width="8.9072886"
         id="rect13049"
         style="opacity:1;fill:#ffffff;fill-opacity:1;stroke:none;stroke-width:0.26499999;stroke-miterlimit:4;stroke-dasharray:none;stroke-dashoffset:0;stroke-opacity:1" />
      <path
         inkscape:connector-curvature="0"
         id="path13175-5"
         d="M 10.894533,123.02785 H 147.75718"
         style="opacity:0.228;fill:#4d4d4d;fill-opacity:1;stroke:#000000;stroke-width:1.26499999;stroke-linecap:butt;stroke-linejoin:miter;stroke-miterlimit:4;stroke-dasharray:none;stroke-opacity:1" />
      <path
         inkscape:connector-curvature="0"
         id="path13175"
         d="M 18.384532,126.94307 H 155.24717"
         style="opacity:0.319;fill:#4d4d4d;fill-opacity:1;stroke:#000000;stroke-width:1.26499999;stroke-linecap:butt;stroke-linejoin:miter;stroke-miterlimit:4;stroke-dasharray:none;stroke-opacity:1" />
      <path
         style="opacity:0.67099998;fill:none;stroke:#000000;stroke-width:0.465;stroke-linecap:butt;stroke-linejoin:miter;stroke-miterlimit:4;stroke-dasharray:none;stroke-opacity:1;marker-start:url(#Arrow2Sstart-3)"
         d="M 59.259658,206.53079 H 190.1643"
         id="path1490"
         inkscape:connector-curvature="0"
         sodipodi:nodetypes="cc" />
      <path
         style="opacity:0.67099998;fill:none;stroke:#000000;stroke-width:0.465;stroke-linecap:butt;stroke-linejoin:miter;stroke-miterlimit:4;stroke-dasharray:none;stroke-opacity:1;marker-start:url(#Arrow2Sstart-3-7)"
         d="m 134.48793,151.51821 55.67637,55.01258"
         id="path1490-3"
         inkscape:connector-curvature="0"
         sodipodi:nodetypes="cc" />
      <path
         inkscape:connector-curvature="0"
         id="path13175-5-4"
         d="M 3.5747613,118.77217 H 140.43741"
         style="opacity:0.106;fill:#4d4d4d;fill-opacity:1;stroke:#000000;stroke-width:1.26499999;stroke-linecap:butt;stroke-linejoin:miter;stroke-miterlimit:4;stroke-dasharray:none;stroke-opacity:1" />
      <path
         sodipodi:nodetypes="ccccc"
         inkscape:connector-curvature="0"
         id="path815-3-2"
         d="M 71.666184,200.41956 51.540916,181.36275 h 25.227448 l 20.12526,19.05681 z"
         style="opacity:0.1;fill:none;stroke:#000000;stroke-width:0.44466043px;stroke-linecap:butt;stroke-linejoin:miter;stroke-opacity:1" />
      <path
         sodipodi:nodetypes="ccccc"
         inkscape:connector-curvature="0"
         id="path815-6-7-0-0"
         d="m 125.2961,200.41956 -20.12527,-19.05681 h 25.22746 l 20.12526,19.05681 z"
         style="opacity:0.1;fill:none;stroke:#000000;stroke-width:0.44466043px;stroke-linecap:butt;stroke-linejoin:miter;stroke-opacity:1" />
      <path
         sodipodi:nodetypes="cccccc"
         inkscape:connector-curvature="0"
         id="path815-6-5-7-6"
         d="M 152.11106,200.41956 131.9858,181.36275 h 25.22745 l 20.12527,19.05681 h -14.47369 z"
         style="opacity:0.1;fill:none;stroke:#000000;stroke-width:0.44466043px;stroke-linecap:butt;stroke-linejoin:miter;stroke-opacity:1" />
      <path
         sodipodi:nodetypes="cccccc"
         inkscape:connector-curvature="0"
         id="path815-6-8-8"
         d="m 98.481124,200.41956 -15.246272,-14.43684 -4.878998,-4.61997 h 25.227456 l 20.12528,19.05681 z"
         style="opacity:0.1;fill:none;stroke:#000000;stroke-width:0.44466043px;stroke-linecap:butt;stroke-linejoin:miter;stroke-opacity:1" />
      <path
         sodipodi:nodetypes="ccccc"
         inkscape:connector-curvature="0"
         id="path815-6-5-7-6-9"
         d="M 157.74242,180.30441 137.61716,161.2476 h 25.22745 l 20.12527,19.05681 z"
         style="opacity:0.03999999;fill:none;stroke:#000000;stroke-width:0.44466043px;stroke-linecap:butt;stroke-linejoin:miter;stroke-opacity:1" />
      <path
         sodipodi:nodetypes="ccccc"
         inkscape:connector-curvature="0"
         id="path815-6-5-7-6-9-2"
         d="M 23.667623,180.30441 3.5423639,161.2476 H 28.769813 l 20.12527,19.05681 z"
         style="opacity:0.03999999;fill:none;stroke:#000000;stroke-width:0.44466043px;stroke-linecap:butt;stroke-linejoin:miter;stroke-opacity:1" />
      <text
         transform="rotate(44.896384)"
         id="text1805"
         y="10.047689"
         x="262.27515"
         style="font-style:normal;font-variant:normal;font-weight:normal;font-stretch:normal;font-size:17.63888741px;line-height:1.25;font-family:FreeSans;-inkscape-font-specification:FreeSans;letter-spacing:0px;word-spacing:0px;opacity:0.72;fill:#000000;fill-opacity:1;stroke:none;stroke-width:0.26458332;"
         xml:space="preserve"><tspan
           style="font-size:6.3499999px;stroke-width:0.26458332;"
           y="10.047689"
           x="262.27515"
           id="tspan1803"
           sodipodi:role="line">z-axis</tspan></text>
      <text
         transform="rotate(0.44515243)"
         id="text1805-5"
         y="210.84514"
         x="166.2509"
         style="font-style:normal;font-variant:normal;font-weight:normal;font-stretch:normal;font-size:17.63888741px;line-height:1.25;font-family:FreeSans;-inkscape-font-specification:FreeSans;letter-spacing:0px;word-spacing:0px;fill:#000000;fill-opacity:1;stroke:none;stroke-width:0.26458332;opacity:0.72;"
         xml:space="preserve"><tspan
           style="font-size:6.3499999px;stroke-width:0.26458332;"
           y="210.84514"
           x="166.2509"
           id="tspan1803-6"
           sodipodi:role="line">x-axis</tspan></text>
      <ellipse
         style="opacity:0.856;fill:#000000;fill-opacity:1;stroke:#ff0000;stroke-width:0.96499997;stroke-miterlimit:4;stroke-dasharray:none;stroke-opacity:0"
         id="path4216"
         cx="95.289703"
         cy="127.08265"
         rx="1.0833194"
         ry="1.0833216" />
      <text
         xml:space="preserve"
         style="font-style:normal;font-variant:normal;font-weight:normal;font-stretch:normal;font-size:17.63888741px;line-height:1.25;font-family:FreeSans;-inkscape-font-specification:FreeSans;letter-spacing:0px;word-spacing:0px;fill:#000000;fill-opacity:1;stroke:none;stroke-width:0.26458332"
         x="114.90273"
         y="111.68385"
         id="text4230"><tspan
           sodipodi:role="line"
           id="tspan4228"
           x="114.90273"
           y="111.68385"
           style="font-size:5.64444447px;stroke-width:0.26458332">Electron avalanche point</tspan></text>
      <path
         style="fill:none;stroke:#000000;stroke-width:0.565;stroke-linecap:butt;stroke-linejoin:miter;stroke-miterlimit:4;stroke-dasharray:none;stroke-opacity:1;marker-end:url(#Arrow2Send)"
         d="M 114.74236,112.57284 96.20552,125.93377"
         id="path4232"
         inkscape:connector-curvature="0"
         sodipodi:nodetypes="cc" />
      <path
         style="fill:none;stroke:#000000;stroke-width:0.26499999;stroke-linecap:butt;stroke-linejoin:miter;stroke-miterlimit:4;stroke-dasharray:none;stroke-opacity:1;marker-start:url(#Arrow2Lstart)"
         d="M 60.931527,99.415318 C 67.740615,101.96873 127.4904,114.56554 185.1974,165.63368"
         id="path13672"
         inkscape:connector-curvature="0"
         sodipodi:nodetypes="cc" />
      <path
         style="opacity:0.59500002;fill:#000000;fill-opacity:1;stroke:#ff0000;stroke-width:0.26499999;stroke-miterlimit:4;stroke-dasharray:none;stroke-opacity:0"
         id="path19924"
         sodipodi:type="arc"
         sodipodi:cx="102.54861"
         sodipodi:cy="186.74184"
         sodipodi:rx="20.148903"
         sodipodi:ry="25.494242"
         sodipodi:start="0"
         sodipodi:end="0.034281234"
         sodipodi:open="true"
         d="m 122.69751,186.74184 a 20.148903,25.494242 0 0 1 -0.0118,0.8738" />
      <path
         style="opacity:0.59500002;fill:#000000;fill-opacity:1;stroke:#ff0000;stroke-width:0.26499999;stroke-miterlimit:4;stroke-dasharray:none;stroke-opacity:0"
         id="path19926"
         sodipodi:type="arc"
         sodipodi:cx="87.026886"
         sodipodi:cy="168.8028"
         sodipodi:rx="4.627183"
         sodipodi:ry="7.5551934"
         sodipodi:start="0"
         sodipodi:end="0.034281234"
         sodipodi:open="true"
         d="m 91.654069,168.8028 a 4.627183,7.5551934 0 0 1 -0.0027,0.25895" />
      <path
         style="opacity:0.59500002;fill:#000000;fill-opacity:1;stroke:#ff0000;stroke-width:0.26499999;stroke-miterlimit:4;stroke-dasharray:none;stroke-opacity:0"
         id="path19928"
         sodipodi:type="arc"
         sodipodi:cx="54.544552"
         sodipodi:cy="169.71913"
         sodipodi:rx="8.1709032"
         sodipodi:ry="8.6815853"
         sodipodi:start="0"
         sodipodi:end="0.034281234"
         sodipodi:open="true"
         d="m 62.715455,169.71913 a 8.1709032,8.6815853 0 0 1 -0.0048,0.29756" />
      <path
         style="opacity:0.59500002;fill:#000000;fill-opacity:1;stroke:#ff0000;stroke-width:0.26499999;stroke-miterlimit:4;stroke-dasharray:none;stroke-opacity:0"
         id="path19930"
         sodipodi:type="arc"
         sodipodi:cx="71.907722"
         sodipodi:cy="170.74049"
         sodipodi:rx="13.618172"
         sodipodi:ry="13.7884"
         sodipodi:start="0"
         sodipodi:end="0.034281234"
         sodipodi:open="true"
         d="m 85.525894,170.74049 a 13.618172,13.7884 0 0 1 -0.008,0.47259" />
      <path
         style="opacity:0.59500002;fill:#000000;fill-opacity:1;stroke:#ff0000;stroke-width:0.26499999;stroke-miterlimit:4;stroke-dasharray:none;stroke-opacity:0"
         id="path19932"
         sodipodi:type="arc"
         sodipodi:cx="209.19591"
         sodipodi:cy="138.99313"
         sodipodi:rx="10.128515"
         sodipodi:ry="9.6178341"
         sodipodi:start="0"
         sodipodi:end="0.034281234"
         sodipodi:open="true"
         d="m 219.32442,138.99313 a 10.128515,9.6178341 0 0 1 -0.006,0.32965" />
      <path
         style="opacity:0.59500002;fill:#ff0000;fill-opacity:1;stroke:#ff0000;stroke-width:0.26499999;stroke-miterlimit:4;stroke-dasharray:none;stroke-opacity:0"
         id="path19934"
         sodipodi:type="arc"
         sodipodi:cx="32.382114"
         sodipodi:cy="188.45972"
         sodipodi:rx="8.7144928"
         sodipodi:ry="8.155304"
         sodipodi:start="0"
         sodipodi:end="0.034281234"
         sodipodi:open="true"
         d="m 41.096607,188.45972 a 8.7144928,8.155304 0 0 1 -0.0051,0.27952" />
      <path
         style="opacity:0.59500002;fill:#ff0000;fill-opacity:1;stroke:#ff0000;stroke-width:0.26499999;stroke-miterlimit:4;stroke-dasharray:none;stroke-opacity:0"
         id="path19936"
         sodipodi:type="arc"
         sodipodi:cx="-7.67347"
         sodipodi:cy="146.14267"
         sodipodi:rx="4.5110192"
         sodipodi:ry="4.3407927"
         sodipodi:start="0"
         sodipodi:end="0.034281234"
         sodipodi:open="true"
         d="m -3.1624508,146.14267 a 4.5110192,4.3407927 0 0 1 -0.00265,0.14878" />
      <ellipse
         style="opacity:0.323;fill:#ff0000;fill-opacity:1;stroke:#ff0000;stroke-width:0.28091204;stroke-miterlimit:4;stroke-dasharray:none;stroke-opacity:0"
         id="path1403"
         ry="11.461663"
         rx="30.468868"
         cy="166.04451"
         cx="102.3378"
         transform="matrix(0.99870999,0.05077755,-0.05432072,0.99852354,0,0)" />
      <ellipse
         style="opacity:0.32300002;fill:#ff0000;fill-opacity:1;stroke:#ff0000;stroke-width:0.35249275;stroke-miterlimit:4;stroke-dasharray:none;stroke-opacity:0"
         id="path1403-5"
         ry="14.382272"
         rx="38.232803"
         cy="166.5479"
         cx="102.4965"
         transform="matrix(0.99870999,0.05077755,-0.05432072,0.99852354,0,0)" />
      <ellipse
         style="opacity:0.32300002;fill:#ff0000;fill-opacity:1;stroke:#ff0000;stroke-width:0.45774588;stroke-miterlimit:4;stroke-dasharray:none;stroke-opacity:0"
         id="path1403-5-3"
         ry="18.889698"
         rx="49.089333"
         cy="166.19717"
         cx="101.80814"
         transform="matrix(0.99864993,0.05194537,-0.0530998,0.99858921,0,0)" />
      <ellipse
         style="opacity:0.32300002;fill:#ff0000;fill-opacity:1;stroke:#ff0000;stroke-width:0.16986747;stroke-miterlimit:4;stroke-dasharray:none;stroke-opacity:0"
         id="path1403-5-3-5"
         ry="7.0098829"
         rx="18.216833"
         cy="165.89969"
         cx="103.66737"
         transform="matrix(0.99864993,0.05194537,-0.0530998,0.99858921,0,0)" />
      <ellipse
         style="opacity:1;fill:#ff0000;fill-opacity:1;stroke:#ff0000;stroke-width:0.07258987;stroke-miterlimit:4;stroke-dasharray:none;stroke-opacity:0"
         id="path1403-5-3-6"
         ry="2.9955502"
         rx="7.7846432"
         cy="166.55855"
         cx="103.93957"
         transform="matrix(0.99864993,0.05194537,-0.0530998,0.99858921,0,0)" />
      <path
         style="fill:none;stroke:#000000;stroke-width:0.20113938px;stroke-linecap:butt;stroke-linejoin:miter;stroke-opacity:1"
         d="M 95.147186,125.93377 V 110.78355"
         id="path1620"
         inkscape:connector-curvature="0" />
      <text
         xml:space="preserve"
         style="font-style:normal;font-variant:normal;font-weight:normal;font-stretch:normal;font-size:17.63888741px;line-height:1.25;font-family:FreeSans;-inkscape-font-specification:FreeSans;letter-spacing:0px;word-spacing:0px;fill:#000000;fill-opacity:1;stroke:none;stroke-width:0.26458332"
         x="65.16433"
         y="99.906624"
         id="text4230-2"><tspan
           sodipodi:role="line"
           x="65.16433"
           y="99.906624"
           style="font-size:5.64444447px;stroke-width:0.26458332"
           id="tspan4785">Charged particle track</tspan></text>
      <path
         style="fill:none;stroke:#000000;stroke-width:0.18464294px;stroke-linecap:butt;stroke-linejoin:miter;stroke-opacity:1"
         d="m 89.951802,122.4626 0,-13.61817"
         id="path1620-1"
         inkscape:connector-curvature="0"
         sodipodi:nodetypes="cc" />
      <path
         style="fill:none;stroke:#000000;stroke-width:0.18464294px;stroke-linecap:butt;stroke-linejoin:miter;stroke-opacity:1"
         d="M 81.780899,118.73609 V 105.96907"
         id="path1620-1-2"
         inkscape:connector-curvature="0" />
      <path
         style="fill:none;stroke:#000000;stroke-width:0.20113938px;stroke-linecap:butt;stroke-linejoin:miter;stroke-opacity:1"
         d="m 104.93179,130.65199 0,-16.00135"
         id="path1620-7"
         inkscape:connector-curvature="0"
         sodipodi:nodetypes="cc" />
      <path
         style="fill:none;stroke:#000000;stroke-width:0.20113938px;stroke-linecap:butt;stroke-linejoin:miter;stroke-opacity:1"
         d="M 114.29429,134.82256 V 118.82122"
         id="path1620-7-0"
         inkscape:connector-curvature="0"
         sodipodi:nodetypes="cc" />
      <path
         style="fill:none;stroke:#000000;stroke-width:0.45830834;stroke-linecap:butt;stroke-linejoin:miter;stroke-miterlimit:4;stroke-dasharray:none;stroke-opacity:1"
         d="m 85.106497,205.96782 c 0,0 5.832632,-0.0685 6.34152,-0.11994 0.244344,-0.0247 1.123751,-0.0607 1.938997,-0.12045 0.882631,-0.0647 1.712236,-0.17728 1.793633,-0.19509 0.07445,-0.0163 0.587456,-0.0834 1.119339,-0.18627 0.586763,-0.1135 1.120968,-0.31441 1.367362,-0.38632 0.157871,-0.0461 0.651337,-0.2129 1.126731,-0.46237 0.354515,-0.18605 0.795606,-0.38181 1.129852,-0.57986 0.551199,-0.32658 0.918919,-0.62288 0.918919,-0.62288 l 0.84977,-0.66325 0.83349,-0.7933 1.60495,-1.78213 1.21352,-1.49082 1.60496,-2.29621 1.40923,-1.8678 0.82206,-1.06242 0.7829,-0.89107 0.46975,-0.4798 c 0,0 0.97355,-0.81295 1.08428,-0.86748 0.11072,-0.0546 0.75308,-0.39624 0.87191,-0.44227 0.12861,-0.0503 0.61553,-0.16994 0.7865,-0.19313 0.2082,-0.0245 0.54648,-0.0147 0.54214,-0.0129 l 0.31832,0.0121 0.30448,0.0606 0.42903,0.15751 0.24913,0.12723 0.42903,0.24234 0.41521,0.28475 0.40136,0.32715 0.70584,0.66643 0.59512,0.61796 0.60896,0.70278 0.74735,0.99358 0.58128,0.79972 0.63665,0.87242 0.66431,0.95723 1.10719,1.57519 1.24561,1.51461 0.60896,0.7149 0.85808,0.82395 0.47055,0.49679 c 0,0 1.35632,1.1347 1.61929,1.28586 0.25317,0.14687 1.53385,0.85662 1.90992,0.97541 0.1942,0.0722 0.7049,0.28155 1.22146,0.42949 0.63991,0.18329 1.28356,0.30211 1.28356,0.30211 l 0.63872,0.12151 1.12543,0.14993 c 0,0 0.81227,0.0428 0.8514,0.0557 0.0391,0.0129 1.71262,0.0728 1.71262,0.0728 l 1.46795,0.0343"
         id="path4383"
         inkscape:connector-curvature="0"
         sodipodi:nodetypes="csscscsscccccccccccccccccccccccccccccccccccscccccc" />
      <path
         sodipodi:nodetypes="csscscsscccccccccccccccccccccccccccccccccccscccccc"
         inkscape:connector-curvature="0"
         id="path4383-9"
         d="m 137.88924,153.74029 c 0,0 3.59223,3.46048 3.91441,3.73577 0.15485,0.13228 0.70605,0.64342 1.22175,1.10125 0.55965,0.49688 1.09381,0.93146 1.14718,0.96975 0.0487,0.035 0.37956,0.30603 0.7274,0.56578 0.38432,0.28698 0.74779,0.48522 0.91285,0.59026 0.10574,0.0674 0.43991,0.26315 0.77405,0.39423 0.24949,0.0979 0.55546,0.24305 0.79424,0.32076 0.39421,0.12832 0.66806,0.1628 0.66806,0.1628 0,0 0.63104,0.0938 0.63104,0.0938 0,0 0.63956,-0.001 0.63956,-0.001 0,0 1.27004,-0.16944 1.27004,-0.16944 0,0 0.98344,-0.22288 0.98344,-0.22288 0,0 1.34971,-0.50979 1.34971,-0.50979 0,0 1.17009,-0.35154 1.17009,-0.35154 0,0 0.68105,-0.18781 0.68105,-0.18781 0,0 0.63369,-0.0993 0.63369,-0.0993 0,0 0.37345,-0.0233 0.37345,-0.0233 0,0 0.75094,0.0718 0.83131,0.10509 0.0804,0.0333 0.55083,0.21015 0.6356,0.25432 0.0918,0.0475 0.43026,0.27449 0.54665,0.36677 0.14126,0.11496 0.36423,0.33484 0.3611,0.33331 0,0 0.20961,0.20905 0.20961,0.20905 0,0 0.19399,0.23278 0.19399,0.23278 0,0 0.26375,0.37641 0.26375,0.37641 0,0 0.14843,0.24262 0.14843,0.24262 0,0 0.25267,0.43374 0.25267,0.43374 0,0 0.23796,0.45378 0.23796,0.45378 0,0 0.22319,0.47383 0.22319,0.47383 0,0 0.38064,0.8955 0.38064,0.8955 0,0 0.31384,0.79395 0.31384,0.79395 0,0 0.31204,0.86101 0.31204,0.86101 0,0 0.36567,1.14664 0.36567,1.14664 0,0 0.28126,0.9116 0.28126,0.9116 0,0 0.30906,0.99787 0.30906,0.99787 0,0 0.31666,1.07469 0.31666,1.07469 0,0 0.53188,1.7822 0.53188,1.7822 0,0 0.63602,1.83814 0.63602,1.83814 0,0 0.31533,0.8838 0.31533,0.8838 0,0 0.47066,1.12403 0.47066,1.12403 0,0 0.25239,0.648 0.25239,0.648 0,0 0.77068,1.6713 0.93001,1.94943 0.15335,0.26887 0.93538,1.60951 1.17807,1.94319 0.1239,0.17985 0.44738,0.66655 0.78398,1.1161 0.41769,0.55789 0.84777,1.07534 0.84777,1.07534 0,0 0.42707,0.51691 0.42707,0.51691 0,0 0.76348,0.86928 0.76348,0.86928 0,0 0.5618,0.5844 0.58739,0.62 0.0256,0.0356 1.1915,1.22493 1.1915,1.22493 0,0 1.03006,1.03551 1.03006,1.03551"
         style="fill:none;stroke:#000000;stroke-width:0.36750916;stroke-linecap:butt;stroke-linejoin:miter;stroke-miterlimit:4;stroke-dasharray:none;stroke-opacity:1" />
      <text
         xml:space="preserve"
         style="font-style:normal;font-variant:normal;font-weight:normal;font-stretch:normal;font-size:17.63888741px;line-height:1.25;font-family:FreeSans;-inkscape-font-specification:FreeSans;letter-spacing:0px;word-spacing:0px;fill:#000000;fill-opacity:1;stroke:none;stroke-width:0.26458332"
         x="163.02699"
         y="171.61693"
         id="text4575"><tspan
           sodipodi:role="line"
           id="tspan4573"
           x="163.02699"
           y="171.61693"
           style="font-size:6.3499999px;stroke-width:0.26458332">ρ(z)</tspan></text>
      <text
         xml:space="preserve"
         style="font-style:normal;font-variant:normal;font-weight:normal;font-stretch:normal;font-size:17.63888741px;line-height:1.25;font-family:FreeSans;-inkscape-font-specification:FreeSans;letter-spacing:0px;word-spacing:0px;fill:#000000;fill-opacity:1;stroke:none;stroke-width:0.26458332"
         x="121.84653"
         y="196.85069"
         id="text4575-3"><tspan
           sodipodi:role="line"
           id="tspan4573-6"
           x="121.84653"
           y="196.85069"
           style="font-size:6.3499999px;stroke-width:0.26458332">ρ(x)</tspan></text>
    </g>
  </g>
</svg>
